<svg xmlns="http://www.w3.org/2000/svg" fill="none" viewBox="0 0 24 24"><path fill="#000" fill-rule="evenodd" d="M7.404 17.357c3.423-.5 5.78-.457 9.206.018a1.038 1.038 0 0 1 .89 1.034c0 .24-.082.473-.232.655-.26.317-.525.63-.797.936h1.32l.251-.302c.297-.364.458-.82.458-1.288a2.038 2.038 0 0 0-1.753-2.026c-3.508-.485-5.96-.532-9.487-.016a2.068 2.068 0 0 0-1.76 2.055c0 .453.147.9.427 1.263.083.107.164.212.245.314H7.46c-.253-.303-.5-.611-.74-.924a1.072 1.072 0 0 1-.22-.654c0-.538.387-.99.904-1.065ZM12 12.5a3 3 0 1 0 0-6 3 3 0 0 0 0 6Zm0 1a4 4 0 1 0 0-8 4 4 0 0 0 0 8Z" clip-rule="evenodd"/><path fill="#000" fill-rule="evenodd" d="M12 21a9 9 0 1 0 0-18 9 9 0 0 0 0 18Zm0 1c5.523 0 10-4.477 10-10S17.523 2 12 2 2 6.477 2 12s4.477 10 10 10Z" clip-rule="evenodd"/></svg>