<svg xmlns="http://www.w3.org/2000/svg" fill="none" viewBox="0 0 24 24"><path fill="#000" d="M8.378 23.424a1.562 1.562 0 1 0 0-3.123 1.562 1.562 0 0 0 0 3.123ZM17.867 23.424a1.562 1.562 0 1 0 0-3.123 1.562 1.562 0 0 0 0 3.123ZM22.087 4.94a.694.694 0 0 0-.534-.257H7.1l.451 1.388h13.091l-1.853 8.33H8.378L5.206 4.357a.694.694 0 0 0-.458-.452l-2.846-.874a.697.697 0 0 0-.41 1.332l2.492.764L7.17 15.192l-1.138.93-.09.09a1.846 1.846 0 0 0-.056 2.353 1.908 1.908 0 0 0 1.569.694H19.04a.694.694 0 1 0 0-1.388H7.344a.466.466 0 0 1-.389-.694l1.673-1.388h10.717a.695.695 0 0 0 .695-.542l2.2-9.717a.695.695 0 0 0-.153-.59Z"/></svg>